# xmcd CD database file
#
# Track frame offsets:
#	150
#	10407
#	23101
#	35540
#	47353
#	60835
#	71832
#	83373
#	95770
#	109758
#	120812
#	134420
#	144302
#	161356
#	172428
#	182268
#	194175
#	206700
#	220472
#	231699
#	241684
#	255100
#	266569
#	275944
#	289196
#	300306
#	315016
#
# Disc length: 4331 seconds
#
# Revision: 0
# Processed by: cddbd v1.5.2PL0 Copyright (c) Steve Scherf et al.
# Submitted via: CDex 1.70beta2
#
DISCID=7b10e91b
DTITLE=Cole, Nat King - Complete Billy May Sessions, CD2
DYEAR=2017
DGENRE=Jazz
TTITLE0=Just One Of Those Things 
TTITLE1=I Should Care 
TTITLE2=The Party's Over 
TTITLE3=Just For The Fun Of It 
TTITLE4=A Cottage For Sale 
TTITLE5=I Understand 
TTITLE6=When Your Lover Has Gone 
TTITLE7=Walkin' My Baby Back Home (1961 Reprise)
TTITLE8=Ebony Rhapsody 
TTITLE9=Day In, Day Out 
TTITLE10=Too Little, Too Late 
TTITLE11=When My Sugar Walks Down The Street 
TTITLE12=Cold, Cold Heart 
TTITLE13=Let's Face The Music And Dance 
TTITLE14=Something Makes Me Want To Dance With You 
TTITLE15=I'm Gonna Sit Right Down And Write Myself A Letter 
TTITLE16=The Rules Of The Road 
TTITLE17=Warm And Willing 
TTITLE18=Bidin' My Time 
TTITLE19=Moon Love 
TTITLE20=Who's Sorry Now (Mono Version) 
TTITLE21=When Your Lover Has Gone (Mono Version) 
TTITLE22=With You On My Mind (Broadcast Version)
TTITLE23=Once In A While (Broadcast Version)
TTITLE24=I'm Gonna Sit Right Down And Write Myself A Letter (Broadcast Version)
TTITLE25=These Foolish Things (Trio Version)
TTITLE26=Walkin' My Baby Back Home (Trio Version)
EXTD=YEAR: 2017
EXTT0=
EXTT1=
EXTT2=
EXTT3=
EXTT4=
EXTT5=
EXTT6=
EXTT7=
EXTT8=
EXTT9=
EXTT10=
EXTT11=
EXTT12=
EXTT13=
EXTT14=
EXTT15=
EXTT16=
EXTT17=
EXTT18=
EXTT19=
EXTT20=
EXTT21=
EXTT22=
EXTT23=
EXTT24=
EXTT25=
EXTT26=
PLAYORDER=
